<svg width="84" height="63" viewBox="0 0 84 63" fill="none" xmlns="http://www.w3.org/2000/svg">
<circle cx="6" cy="57" r="6" fill="white" fill-opacity="0.42"/>
<circle cx="24" cy="57" r="6" fill="white" fill-opacity="0.42"/>
<circle cx="42" cy="57" r="6" fill="white" fill-opacity="0.42"/>
<circle cx="60" cy="57" r="6" fill="white" fill-opacity="0.42"/>
<circle cx="78" cy="57" r="6" fill="white" fill-opacity="0.42"/>
<circle cx="6" cy="40" r="6" fill="white" fill-opacity="0.42"/>
<circle cx="6" cy="23" r="6" fill="white" fill-opacity="0.42"/>
<circle cx="6" cy="6" r="6" fill="white" fill-opacity="0.42"/>
<circle cx="24" cy="40" r="6" fill="white" fill-opacity="0.42"/>
<circle cx="24" cy="23" r="6" fill="white" fill-opacity="0.42"/>
<circle cx="24" cy="6" r="6" fill="white" fill-opacity="0.42"/>
<circle cx="42" cy="40" r="6" fill="white" fill-opacity="0.42"/>
<circle cx="42" cy="23" r="6" fill="white" fill-opacity="0.42"/>
<circle cx="42" cy="6" r="6" fill="white" fill-opacity="0.42"/>
<circle cx="60" cy="40" r="6" fill="white" fill-opacity="0.42"/>
<circle cx="60" cy="23" r="6" fill="white" fill-opacity="0.42"/>
<circle cx="60" cy="6" r="6" fill="white" fill-opacity="0.42"/>
<circle cx="78" cy="40" r="6" fill="white" fill-opacity="0.42"/>
<circle cx="78" cy="23" r="6" fill="white" fill-opacity="0.42"/>
<circle cx="78" cy="6" r="6" fill="white" fill-opacity="0.42"/>
</svg>
