<svg xmlns="http://www.w3.org/2000/svg" viewBox="0 0 3238 2681.32">
 
<g id="MAP"><g id="Color"><path class="cls-1" d="M2919.73,1628.56c0,.18-.05.35-.07.53s-.78,8.1-6.71,17.46c-7.95,12.56-21,21.54-38.68,26.69-23.72,6.89-49.81,17.46-69.8,28.29-10.7,5.79-19.14,11.36-25.06,16.53-7.61,6.64-11,12.62-10.46,18.29s3.64,12.57,7.19,20.55c7.79,17.46,17.47,39.2,9.36,62-5.89,16.54-5,28-4.25,37.29.88,11.31,1.42,18.15-10.68,29.66-12.31,11.72-41.06,40.46-65.82,67.76-13.9,15.33-24.65,28.1-31.95,38-12.33,16.65-13.39,23-11.19,27.4,8.27,16.54,10.77,30.61,7,39.58-2.2,5.34-6.63,9-13.52,11.34-30,10-94,49.68-102.54,77.64-.45,1.49-1,3.28-1.6,5.32-9,30.27-36.51,122.39-88.14,148.57-8.17,4.14-15.67,7.71-22.93,11.15-42.36,20.11-68.08,32.33-69.58,90.29-3.44,5.2-17.21,25.8-33.24,46.87-31.77,41.74-45.87,50.76-51.46,52.42-9.52,2.85-22.25,4.38-35.73,6-24,2.89-51.21,6.16-76,17.68q-4.79,2.2-9,4.21c-18.75,8.79-31.14,14.6-37.16,12.4-1.53-.56-3.9-2-6.68-8.08-6.62-14.36-23.14-40.12-43.15-45.49a26.32,26.32,0,0,0-22.62,4.12c-19.89,14.06-24.11,20.25-25,23.18-.59,1.12-1.91,3.61-3.85,7.11-33.82-15.37-51.57-47.28-59.33-61.25l-.06-.11c-2.53-4.57-5.68-12-9-20-7.25-17.27-15.46-36.82-23.61-42.06-2.71-1.75-11.53-3.3-56.37-1.65-3.11.11-6.31.24-9.57.38l0-.08c-.52-.65-12.17-16.31,13.89-38,18-15,19.75-23.24,21.77-32.78a65.64,65.64,0,0,1,8.56-22.63,197.79,197.79,0,0,1,11.87-17.23c13.59-18.27,26.42-35.53,12-61.56-18-32.32-21.83-45.37-16.6-55.84,3.45-6.89,10.64-11.79,17.59-16.52,4.34-2.95,8.42-5.72,11.66-9,4.47-4.47,17.27-24.7,28-44.18,21.57-39.29,18.7-45,17.75-46.92-1.73-3.46-4.38-6-6.94-8.49-5.24-5.07-10.19-9.86-9.44-22.84,1.18-20.84,26.16-76.8,38.18-85.53,6.13-4.47,10.53-18.48,13.44-42.87,1.78-14.78,2.39-28.87,2.55-33,3.91-3.32,18.94-16.53,23.34-26.77h0c1.53-3.56,13.28-1.89,22.73-.54,13.87,2,28.21,4,36-2.43,3.1-2.56,6.85-5.06,10.47-7.49,12.15-8.14,25.93-17.36,19.63-32.08-.7-1.64-1.43-3.26-2.14-4.84-6.5-14.45-12.62-28.09,3.21-50.5,2.8-4,5.77-8,8.64-11.83,16.09-21.66,32.74-44.06,28.55-73.37-2.15-15.06,8.17-21.94,19.1-29.22,11.3-7.55,23-15.34,18.11-32.21-5.42-18.72-18.22-20.23-27.57-21.34-7.94-.94-10.76-1.71-11.21-6.73a147.7,147.7,0,0,1,1.26-35.69c1.77-10.27,5.73-23.21,14.52-26.65,2.78-1.09,5.29-2,7.72-2.79,13.37-4.61,21.44-7.4,26.43-31.66.89-4.31,3.59-17.44,7.34-19,2.27-1,6.7,1.91,12.31,5.55l.12.08c6,3.85,8.49,7.92,10.7,11.5,2.54,4.09,4.93,8,11.36,8a15.23,15.23,0,0,0,11.83-4.91c4.83-5.35,6.48-14.56,5.08-28.16-1.53-14.82,1.61-16.23,8.48-19.31a48.51,48.51,0,0,0,9.49-5.25c7.29-5.35,12.38-19.87,17.76-35.24,3.84-11,7.82-22.31,12.13-28,5-6.53,12.51-7.35,19.78-8.13,6.45-.7,12.54-1.36,15.35-6.49,2-3.7,1.48-8.49.92-13.57s-1.16-10.35,1.26-13.17c1.49-1.72,4.27-2.68,8.28-2.82,7.54-.28,14.57-2.46,21.37-4.56,12.92-4,23.13-7.16,32,3.6,9.62,11.65,14.39,10.38,20.06,7.31,2.87-1.54,5.58-3,10.65-1.68,3.83,1,7.12,6.28,10.61,11.86,6,9.6,13.55,21.75,29.17,21.75,5.93,0,13-1.75,21.58-6,20-10,35.11-21.4,46.15-29.73s19.15-14.45,22.23-11.53a5.87,5.87,0,0,1,.64.74l.1.15c3.17,4.59,3.79,17.09,4.29,27.27.6,12.4,1.13,23.12,5.15,27.58,11,12.25,13.76,23.21,8.35,33.49-6.91,13.11-8.92,28.26-5.82,43.79.59,2.95.48,7.07.36,11.44-.35,12.32-.82,29.21,14.32,38.67,8.65,5.4,17.8,6.06,26.65,6.69,11.57.82,22.49,1.6,32.27,12.66,18.6,21,48.37,28.65,63.85,28.65,2.17,0,5-.14,8.24-.3,13.64-.67,36.48-1.8,44,6.36,2,2.17,2.75,4.92,2.29,8.4-1.94,14.48-3.08,29.53,5.78,40.45,6.67,8.23,18,12.84,34.71,14.1,21.8,1.64,34.32,9.5,46.42,17.08C2898,1620,2907.18,1625.71,2919.73,1628.56Z" transform="translate(-381 -659.34)"/><path class="cls-2" d="M3226.1,1074.45c-.94,1.5-8.17,4.25-14,6.46-14.24,5.42-35.77,13.6-48.47,28.95-15,18.09-24.37,19.21-45,21.66-4.47.54-9.55,1.14-15.24,2-32.58,4.88-83.45,28.06-95.66,37.83-11.43,9.14-37.6,14.15-56.89,6.73-3.68-1.41-7.3-2.64-10.81-3.83-17.58-6-27.46-10-26.38-23.63s-2.54-36.34-14-44.09c-4.73-3.2-10.25-3.38-15.95-.53a97,97,0,0,0-9.79,5.83c-12.14,8-20.17,13.2-50.91-9.55-16.64-12.32-25.6-14.55-30.41-15.76-3-.75-3.24-.91-3.62-1.79-.8-1.81-1.24-5.93-2-13.39-.26-2.5-.58-5.38-1-8.72-1.38-12.1-3.1-16.71-6.58-17.61-3.79-1-6.7,3.11-10.72,8.76-5.74,8.06-13.6,19.08-24.52,17.1-27.5-5-46.1-15.78-55.29-32-6.71-11.89-18.9-7.73-29.64-4.06-8.25,2.82-16,5.49-21,1.67-4.42-3.39-.12-14.74,3.68-24.77,4.23-11.19,8.62-22.76,4.54-30-1.76-3.15-4.91-5.16-9.33-6-5.5-1-13.09-1.57-21.87-2.2-15.94-1.14-35.77-2.58-51.58-7.69-17.76-5.74-26.77-14.94-27.52-28.11-.46-7.87-3.41-14.22-8.78-18.85-14.42-12.42-43-9.84-63.83-8-8.58.78-16.68,1.51-19.72.61l-.65-.19c-6.58-1.92-14-4.11-17.68-11.17-4.13-8-3-21.42,3.43-40,8.25-23.91,14.8-26.59,23.89-30.29,8.12-3.32,18.24-7.44,32.05-26.11a349.75,349.75,0,0,0,22.23-34.49c10.38-17.85,15.12-26,28.7-25.52,5.38.19,13.75.9,23.44,1.74,41.48,3.59,79.65,6.12,90.88-2.29,4.37-3.27,7-9.53,7-16.34a29.34,29.34,0,0,0-6.76-18c10.16.59,21.07,2.54,28.17,7.32a5.26,5.26,0,0,0,4.82.56c.43-.15,43.48-16.31,74.14-22.21A83.59,83.59,0,0,0,2790,680.72c11.12-7.84,15.47-10.08,16.95-10.71a51.29,51.29,0,0,1,4.54,2.49A115.82,115.82,0,0,0,2871,688.89l1.84,0c13.6-.21,24.3,2.62,31.77,8.42a234.47,234.47,0,0,1,37.14,36.33,5.33,5.33,0,0,0,5.85,1.79c.07,0,8-2.56,19.73-1.19,15.7,1.83,30.48,9.42,43.92,22.55,32.35,31.62,15.77,105,15.6,105.68a5.29,5.29,0,0,0,2.59,5.83c.36.2,35.88,20.05,46.93,44.36a5.28,5.28,0,0,0,6,3,225.2,225.2,0,0,1,26.17-4c23.52-2.05,29.29,2.44,30.5,3.87a403.16,403.16,0,0,0,30.3,32c3.31,14,13.07,50.89,27.15,63,6.94,6,15.13,19.12,21.9,35.25C3225.49,1062.61,3226.91,1072.79,3226.1,1074.45Z" transform="translate(-381 -659.34)"/><path class="cls-3" d="M3607.83,1547.94c-.5,19.94-4.1,30.58-7.29,33.89a162,162,0,0,1-25.91,20.73c-13.6,8.69-19.39,8.69-20.34,8-3-2.14-8.82-12.83-13.51-21.41-12.64-23.16-21.1-37.09-31.64-35.44-6.7,1-17,8.77-33.35,21.29-7.1,5.43-14.43,11.07-20.63,15.22-7.62,5.1-10.66,6-11.58,6.13-2.52-1.88-4.44-11.07-5.49-16.1-1.85-8.9-3.45-16.59-8.86-19.59-4.2-2.34-10.52-1.77-20.49-.64a110.69,110.69,0,0,1-15.22,1.06c-5.41-.19-6.44-1.46-6.55-1.6-1-1.4-2.9-6.1-4.77-10.63-4.33-10.53-10.87-26.44-19.78-38.31-14.53-19.32-29.07-19.19-38.71-15.67-2.86,1-5.61,2.06-8.27,3-28.12,10.43-45.09,16.72-65.83,4.87-5.83-3.33-12.94-8.78-21.17-15.1-25.69-19.7-60.88-46.7-93.29-33.6-38.93,15.73-122.73,54-123.58,54.43a5.31,5.31,0,0,0-2.52,7.19,66,66,0,0,1,5.69,26.21c.23,19.83-8.43,37.14-25.75,51.41-38.95,32.12-59.75,31.37-62.62,31.08l-.36-.05a4.46,4.46,0,0,0-1.08-.15c-13.77-2.22-23.17-8.11-33.07-14.33-12.65-7.93-25.73-16.14-48.83-17.87-15.16-1.15-25.3-5.13-31-12.16-7.54-9.29-6.44-23.09-4.65-36.43.67-5.05-.55-9.32-3.63-12.67-9.18-10-32.62-8.83-48.13-8.06-3.19.16-5.95.29-8,.29-14,0-42.57-7.3-59.89-26.87-11.21-12.67-23.74-13.56-35.85-14.43-8.59-.61-16.69-1.18-24.22-5.89-12.57-7.86-12.19-21.77-11.85-34,.14-4.68.26-9.09-.45-12.62-2.9-14.53-1.12-28.09,5.3-40.3s3.41-25.58-9.1-39.49c-2.75-3-3.31-14.34-3.8-24.3-.58-12.2-1.16-23.78-5.06-29.76-6-13.28-17.9-44.33-18.75-46.52l-6.84-25a37.7,37.7,0,0,1,36.38-47.65,19.86,19.86,0,0,0,19.54-16.29l3.73-20.34c16.07-8.85,29-19.22,38.45-30.82a83.58,83.58,0,0,0,16.2-31,72.51,72.51,0,0,0,2.38-23.84c11.15,10.87,27.69,18.34,49.39,22.28,14.24,2.6,23.59-10.54,29.77-19.22,1.67-2.33,3.87-5.43,5.11-6.42.57,1,1.62,4,2.64,12.8.37,3.32.68,6.19.94,8.69,1.73,16.12,1.92,17.81,9.63,19.74,4.46,1.12,12.76,3.2,28.55,14.88,15.5,11.46,26.54,16.82,35.78,17.35,8.76.51,14.8-3.44,21.18-7.62a91.91,91.91,0,0,1,9.25-5.53c4-2,7.49-1.94,10.64.17,8.44,5.71,12.87,24.92,11.72,39.3-1.47,18.39,13.8,23.57,30,29.06,3.46,1.17,7,2.38,10.61,3.76a64.3,64.3,0,0,0,22.91,4c15.48,0,30.69-4.7,39.19-11.51,11.53-9.23,61.91-32,93.13-36.74,5.62-.83,10.65-1.44,15.08-2,20.72-2.48,32.12-3.83,48.44-23.55,11.81-14.26,32.55-22.16,46.27-27.37,9.94-3.78,14.8-5.72,16.6-8.61,3.72-6-4.52-26.88-7.14-33.16-7.11-17.06-15.9-31.15-23.52-37.68-10.84-9.29-19.29-36.42-23.56-52.69,7.06,6,14,10.84,19.66,12.88,5.25,1.88,10.55,1.95,16.68,2,14,.18,35.27.47,77.71,24.17a5.25,5.25,0,0,0,2.35.66l86,3.74a10.46,10.46,0,0,1,10,9.82c1.06,17.09,3.17,39.83,7.11,51.13,1.74,5,4.76,11.35,8.26,18.69,8.44,17.74,20,42,19.21,61a5.31,5.31,0,0,0,3.15,5.07c.67.29,67.61,30,103.34,63.31a28.27,28.27,0,0,1,6,33.13c-7,14.06-16.71,31.1-28.8,50.61-9.57,15.45-8.84,34.16,2.21,57.2,9.05,18.89,23.46,37.5,36.18,53.93,10.58,13.68,20.58,26.61,22.92,34.38,4.17,13.92,10.14,19.7,15.92,25.29,6.43,6.22,12.5,12.09,17.33,31.2A215.84,215.84,0,0,1,3607.83,1547.94Z" transform="translate(-381 -659.34)"/><path class="cls-4" d="M2303.85,1342.45c-5.73,12.28-15.38,26.1-25.81,37-10.81,11.26-18.77,15.44-21.61,14.56-1.62-.5-2.06-4.14-1.17-9.52,2.17-13,1.62-19.87-1.9-23.72-3.73-4.09-9.7-3.64-17.25-3.07a100.72,100.72,0,0,1-14.69.32c-12.47-.84-23.67-8.71-30.86-15.15a10.31,10.31,0,0,0-16.86,4.93c-5,18.52-12.27,31.44-20.38,36.38-6.9,4.2-15.45,3.42-25.43-2.3a21.57,21.57,0,0,0-27,4.68c-10.12,11.68-19,18.9-25,20.31a4.5,4.5,0,0,0-3.7,3.26c-1,4.11,4.26,8.77,16.22,18.93,13.1,11.13,31.05,26.38,29.62,36.38-.45,3.15-3,5.71-7.71,7.83a97.23,97.23,0,0,1-28.22,8.09c-6,.9-10.79,1.62-15.28,5.54-4.32,3.77-8.19,10.34-13.38,22.66-10,23.86,5.91,46.42,17.58,62.88,6.17,8.71,12,16.95,9,19.37-3.24,2.63-3.9,2.32-5,1.83-4.74-2.17-9.64-2.19-29.71,17.38-11.95,11.65-26.18,17.66-37.62,22.49s-20.58,8.68-22.44,16.34c-1.37,5.68,1.44,12.32,9.12,21.48l3.46,4.14c24.19,28.83,24.19,28.83,29.3,67.72l.23,1.74c5.18,39.43,20.58,81.29,23.28,88.41-4.36,8.85-17.51,20.49-21.31,23.75-2.88-.89-10.08-3.54-12.86-8.77-1.44-2.69-1.48-5.7-.16-9.19,4.52-11.83,3.59-24.92-2.24-31.82a11.94,11.94,0,0,0-11.85-4.23,22.75,22.75,0,0,1-17.19-3.34,13.3,13.3,0,0,1-5.86-8.75c-.61-3.93-.34-9,0-14.35.43-8.28.87-16.84-1.68-23.47-3.81-9.92-7.74-38-7.78-38.29a2.66,2.66,0,0,0-1.33-1.94c-7.15-4-25.84-16.55-26.42-26.41a5.52,5.52,0,0,0-2.43-4.52c-4.35-2.88-13.07.21-27.51,5.32-17.56,6.22-41.12,14.55-64.34,14.21q4.44-18.64,8-43.15c4.67-32.32,6.68-62.43,7.14-70,23.06-27,23.4-28.34,23.75-29.75a13.14,13.14,0,0,0,.27-2.35c.94-14.74,6.07-27.64,15.26-38.32,8-9.26,7.72-18.72,7.53-26.33-.13-5.13-.24-9.18,2-12.28,2.7-3.81,9.15-6.71,19.69-8.83,11.74-2.38,21-1.88,29.88-1.39,11.5.62,22.35,1.21,35.46-4.79,13.82-6.31,28.79-19.54,47.15-41.64a5.29,5.29,0,0,0,.11-6.62c-7-9.1-25.78-35.61-27.91-48.77-2.6-16-18.09-30.21-31.76-42.73-11-10.06-22.35-20.47-21.86-27.55,1.3-.84,7.4-3.46,32.54-2.55,17.64.62,38.2,2.67,54.73,4.33,17.3,1.72,25.75,2.53,29,2,2.11-.35,5,.46,8.34,1.4,7.85,2.21,18.58,5.24,33.86-1.81,11.71-5.42,17.89-9.92,25-15.14a236.34,236.34,0,0,1,23.77-15.62,6.13,6.13,0,0,0,1-.8,71.48,71.48,0,0,0,13.07-18.55c7.24-15.08,6.5-29.42-2.16-41.47-16.58-23.07-18.45-34.28,2.17-59.4,7.2-8.75,12.22-15.36,16.26-20.66,8.19-10.75,12.3-16.14,23-24.54,2.32-1.82,5.23-3.71,8.61-5.88a154.62,154.62,0,0,0,17-12.19c1.06,9.83,3.93,25.09,11.67,32.83,4.4,4.4,13.18,1,23.33-3,7.71-3,18.27-7.17,20.95-4.11,1,1.13,2.15,4.63-1.33,15.29-3.35,10.24-10.4,25.15-21,44.31a32.87,32.87,0,0,0-2.26,26.66,13.92,13.92,0,0,1-3.28,14.35c-14.12,14.1-47.82,49.81-56,76.43-6.52,21.32,3,24.65,11.35,27.6,6.35,2.23,11.82,4.16,13.17,13.21a10.31,10.31,0,0,0,4.44,7.41c6.92,4.69,20.08,1.55,32.8-1.47,8.76-2.1,20.76-5,23-2.15C2306.05,1334,2306.83,1336.08,2303.85,1342.45Z" transform="translate(-381 -659.34)"/><path class="cls-5" d="M2686.32,1076.25c-6.25,23.23-24.64,43.69-53.18,59.15a2.58,2.58,0,0,0-1.33,1.85l-4,21.56a14.58,14.58,0,0,1-14.34,12,43,43,0,0,0-41.49,54.34l6.88,25.15.09.25c.11.29,9.55,25,16.15,40.59a16.51,16.51,0,0,0-6.75,2.08c-4.4,2.26-9.66,6.23-16.32,11.26-10.89,8.21-25.81,19.46-45.34,29.23-12.11,6-21.61,7-29.06,3-6.56-3.53-11-10.58-14.84-16.81-4-6.5-7.88-12.64-13.73-14.18-7.1-1.87-11.39.45-14.53,2.14-2.14,1.17-3.34,1.76-4.79,1.4-2.1-.51-5-3-8.67-7.43-11.15-13.49-24.62-9.32-37.67-5.28-6.47,2-13.17,4.07-20,4.33-5.61.2-9.56,1.73-12.09,4.65-3.92,4.55-3.18,11.28-2.52,17.2.46,4,.92,8.21-.3,10.46-1.48,2.7-6,3.19-11.27,3.76-7.59.82-17,1.84-23.41,10.17-4.82,6.31-8.76,17.54-12.92,29.43-4.66,13.29-9.93,28.34-15.9,32.72a44.38,44.38,0,0,1-8.52,4.68c-8.37,3.75-13.41,7-11.58,24.69,1.21,11.69-.09,20-3.75,24.07a10,10,0,0,1-7.9,3.16c-3.31,0-4.35-1.41-6.86-5.45a37.6,37.6,0,0,0-12.32-13.16l-.13-.09c-7.19-4.65-12.38-8-17.22-6-4.61,1.94-7.45,8.12-10.48,22.82-4.39,21.31-10.21,23.33-23,27.72-2.36.82-5.05,1.75-7.93,2.87-8.89,3.49-14.88,13.81-17.81,30.68a153.77,153.77,0,0,0-1.31,37.07c.88,9.73,8.84,10.67,15.86,11.5,9.17,1.08,18.67,2.22,23.11,17.56,3.62,12.51-3.71,18.16-16,26.33-11.26,7.5-24,16-21.39,34.39,3.87,27.14-11.4,47.7-27.57,69.46-2.88,3.88-5.86,7.9-8.71,11.93-17.57,24.88-10.53,40.56-3.71,55.72.69,1.56,1.41,3.16,2.1,4.75,4.26,10-3.84,16.33-17.71,25.61-3.73,2.5-7.6,5.07-10.9,7.8-6,4.94-19.76,3-31.9,1.27-10.4-1.48-19.7-2.79-24.87,0-4.33-11.8-17.31-49.15-21.94-84.44l-.23-1.74c-5.25-40-5.54-40.69-30.49-70.44l-3.47-4.13c-6.31-7.54-8.93-13.05-8-16.84,1.23-5.07,9.23-8.44,19.36-12.72,11.85-5,26.59-11.22,39.25-23.56,8.86-8.64,15.16-13.84,19.25-15.9,2.64-1.35,3.41-1,4.57-.46,3.05,1.39,5.64,1.41,10.5-2.52,3.28-2.64,3.69-6.71,1.23-12.08-1.89-4.12-5.28-8.91-9.21-14.46-10.95-15.46-25.93-36.62-17-57.78,9.59-22.78,13.37-23.34,24.57-25a102.63,102.63,0,0,0,29.6-8.5c6.44-2.88,10.07-6.89,10.79-11.91,1.84-12.88-16.61-28.56-31.44-41.16-5.28-4.48-12.29-10.44-14.06-13.18,7.16-2,16.28-9.34,27.09-21.82a16.29,16.29,0,0,1,20.34-3.56c11.61,6.66,22.26,7.43,30.81,2.23,11.88-7.24,18.92-25.48,22.74-39.51a4.87,4.87,0,0,1,3.39-3.48,5.08,5.08,0,0,1,4.84,1.1c7.81,7,20.05,15.54,34,16.48a102.19,102.19,0,0,0,15.45-.32c6.13-.46,11-.83,12.95,1.36,2.17,2.38,2.37,8.69.6,19.3-1.46,8.79.16,14,4.81,15.43,7.84,2.43,20.27-9,27-16,10.81-11.25,20.83-25.6,26.8-38.39,2-4.32,4.32-10.53,1-14.56-4.38-5.38-15.5-2.73-28.38.34-11.06,2.64-23.61,5.63-28.61,2.24a5.18,5.18,0,0,1-2.18-3.8c-1.79-12.21-10-15.1-16.63-17.43-7.88-2.77-13.09-4.6-8.05-21.07,7.8-25.48,40.82-60.4,54.65-74.23a19.26,19.26,0,0,0,4.54-19.83,27.59,27.59,0,0,1,1.88-22.37c10.88-19.73,17.87-34.52,21.38-45.21,3.36-10.31,3.46-16.81.27-20.43-5.13-5.85-16.17-1.52-26.85,2.68-6.26,2.45-15.7,6.17-17.65,4.22-7.67-7.66-9.88-25.22-10.51-33.63a73.47,73.47,0,0,0,10-12.29c10.92-17,14.41-38.32,10.66-65.19-4.23-30.27-10.88-54.39-19.78-71.69-6-11.69-13.07-20.29-21-25.58-4.58-3.05-14.78-13.33-28-28.2a3.24,3.24,0,0,1,.06-4.42c8.07-8.49,23.79-23.9,38.56-31.68,12.76-6.73,14.45-20.27,15.82-31.16.75-5.95,1.52-12.11,4-14,1.11-.85,3-1.09,5.72-.7,3.79.54,7,1.26,10.22,1.95,8.7,1.9,16.2,3.54,25.91-.68,9.32-4.07,20-13.38,35.81-31.15,19.13-21.55,35.74-22.75,53.34-24,15.69-1.12,31.9-2.29,49.62-17.08,13.8-11.53,49.47-18,103.14-18.8,41.26-.58,78.66,2.52,79,2.56a5.44,5.44,0,0,0,1.14,0,123.87,123.87,0,0,1,15.09-.86c7.54,7,8.85,14.28,8.9,18.32.05,5.08-1.84,9.8-4.85,12.05-10.54,7.89-58.57,3.73-87.26,1.26-9.76-.85-18.19-1.57-23.71-1.77-.42,0-.84,0-1.26,0-15.8,0-22,10.71-32.19,28.17a344.64,344.64,0,0,1-21.91,34c-12.93,17.48-21.89,21.14-29.8,24.36-10,4.07-17.87,7.29-26.89,33.46-7,20.26-8,34.69-3.13,44.12,4.68,9.07,13.67,11.71,20.89,13.83l.65.19c4,1.18,11.42.51,21.68-.42,19.92-1.8,47.19-4.28,59.91,6.69,4.3,3.71,6.57,8.66,6.95,15.14,2,34.87,51.35,38.42,84,40.78,8.62.61,16.07,1.15,21.27,2.13,2.85.53,4.72,1.64,5.71,3.38,2.86,5.1-1.26,16-4.89,25.55-4.88,12.9-9.5,25.08-1.94,30.85,7.23,5.53,16.74,2.28,25.95-.86,11.68-4,19.07-5.88,23.33,1.65a54.74,54.74,0,0,0,3.1,4.86C2687.94,1048.59,2690.53,1060.57,2686.32,1076.25Z" transform="translate(-381 -659.34)"/><path class="cls-6" d="M2163.37,3164.31c-5.87,32.25-4.26,47.79-3.4,56.13a28.18,28.18,0,0,1,.29,5.08c-.89.92-5.17,2.69-9.71,4.58-3.91,1.62-8.77,3.64-15.08,6.48-16.11,7.25-26.61,1-39.91-7-10.58-6.32-22.56-13.47-38.3-12.66-17.29.9-36.55,11.53-58.89,32.52-16.07,15.09-28.23,22.32-37.19,22.06-7.71-.22-13.73-5.86-21.34-13-17.82-16.71-42.15-39.55-109.76-10.71l-57.88-11.58a5.3,5.3,0,0,0-6.09,6.77c.06.19,5.59,18.47-2.57,33.19-4.63,8.35-12.92,14.14-24.67,17.23-19.12,5-33.35,13.37-45.9,20.72-17.94,10.49-32.1,18.78-54.16,14.89a121.75,121.75,0,0,0-21.41-1.8c-8.2,0-15.7.69-22.3,1.3-19.31,1.77-28.06,2.1-33.39-8.56-3.9-7.79-9.08-12.52-14.56-17.52-12.08-11-27.13-24.78-34.9-84.9-5-38.88-10.57-61.66-18-73.89-7.87-13-17.86-14.34-27.52-15.64-1.53-.21-3.11-.43-4.72-.69-14.85-2.4-42-7.22-58.92-10.25,6.11-2.45,14.64-6,23.29-9.74,33.5-14.67,36-19.21,36.91-20.92,2.66-4.88,3.08-11.83,3.49-18.55.37-6.15.76-12.5,2.85-16.35.7-1.29,1.52-2.73,2.4-4.27,5.25-9.29,12.45-22,14.55-34.64.85-5.11,6.57-11,13.19-17.78,10.41-10.69,23.35-24,29.56-44.55,11.33-37.45,17.5-79.09-13.75-129.87C1484,2769,1486,2740.83,1489,2698.22c1.28-17.9-1.12-32.94-3.24-46.19-3.21-20.1-5.74-36,5.22-53.33,9.58-15.16,13.42-26.93,16.82-37.29,3.32-10.21,6.2-19,13.91-28.27,7.06-8.48,17.48-9,29.53-9.53,12.93-.61,27.57-1.3,40.74-12.35,11.91-10,43.25-35.27,72.69-57.79,50.63-38.74,60-42.24,61.71-42.35,3.66.53,22.72-.56,58.64-2.69,28.6-1.69,64.19-3.79,92.92-4.85,44.38-1.66,52.27,0,53.59.8,6.77,4.35,15,23.92,21.6,39.65,3.38,8.06,6.57,15.67,9.25,20.48l0,.11c8,14.4,26.24,47.18,61.38,63.32-12.63,22.37-41.15,69.59-70.55,95.53-6.65,5.86-12.61,11-17.87,15.48-27.24,23.36-38.52,33-36.25,55.65,2.17,21.7-11,44.12-11.17,44.34a5.29,5.29,0,0,0,3.41,7.89c.53.11,52.89,11.71,68.18,33.56a5.27,5.27,0,0,0,5.81,2c.23-.06,22.67-6.38,36,6.47,11.92,11.48,13.64,35.84,5,70.47-2.25,9-4.19,16.63-5.91,23.37-5.49,21.59-8,31.45-8.25,37.66-.37,9.2,4.82,11.56,9.39,13.64,5.79,2.65,15.5,7.07,29.19,29.32a5.29,5.29,0,0,0,5.11,2.49c.42,0,42.16-4.58,58.44,13.8,6.32,7.16,7.91,16.86,4.82,29.68-3.34,14-1.56,27.06,5.46,40.08,6,11.22,15.06,21,24.6,31.34C2149.49,3102.7,2170.44,3125.41,2163.37,3164.31Z" transform="translate(-381 -659.34)"/><path class="cls-7" d="M2027.31,1862c-.87,25-5.26,64.64-13.78,70.84-9.51,6.91-21.52,32.8-25,40.56-7,15.74-14.71,36.86-15.39,49-.88,15.39,5.73,21.8,11,26.94,2.35,2.26,4.57,4.4,5.88,7,.86,1.88-1.76,13.12-17.75,42.21-11.37,20.7-23.33,39.17-27,42.8-2.88,2.88-6.77,5.53-10.88,8.33-7.51,5.11-15.28,10.39-19.36,18.53-6.9,13.82-.42,29.92,16.71,60.77,12.81,23,1.51,38.24-11.57,55.84a203.11,203.11,0,0,0-12.18,17.68,70.29,70.29,0,0,0-9.18,24.24c-2,9.27-3.39,16-20,29.81-12.47,10.4-18.8,21.1-18.8,31.8a24.38,24.38,0,0,0,2.38,10.63c-25.47,1.14-54,2.84-77.78,4.24-28.07,1.66-54.58,3.22-57.56,2.73-2.38-.4-7.33-1.22-64.61,42.54-29.81,22.79-61.76,48.55-74,58.79-11.8,9.89-24.91,10.51-37.58,11.11s-24.8,1.16-33.35,11.43c-8.36,10-11.38,19.28-14.89,30-3.29,10.08-7,21.5-16.26,36.12-12,19-9.21,36.62-6,57,2.08,13,4.43,27.68,3.2,45-3.12,43.63-5.18,72.46,27.35,125.33,30.16,49,24.17,89.29,13.21,125.55-5.85,19.34-18.3,32.13-28.3,42.4-7.54,7.75-13.49,13.86-14.62,20.6-1.94,11.69-8.87,24-13.94,32.91L1465,3049c-2.66,4.89-3.08,11.84-3.49,18.56-.37,6.15-.75,12.5-2.86,16.35-.59,1.09-4.83,5.66-34.37,18.6-10.76,4.71-21.35,9-27.25,11.32a3.67,3.67,0,0,1,0-1.32c4.21-18.92,9.72-53.06-.66-69.17-13-20.16-46.29-27.79-72-30.64-30.23-3.36-66.37-2.11-99.15,3.4-26.48,4.47-39-.36-48-3.89-12.79-4.93-20.91-6.82-39.34,11.95-11.12,11.33-25.07,11.05-41.22,10.73-17.65-.36-37.67-.78-53.39,17.08a2.93,2.93,0,0,1-3.79.57c-11.16-7.2-33.53-20.54-58-29.2-31.59-11.16-56.35-10.91-73.59.74-5.52,3.72-9.11,2.33-16.07-.94-5.93-2.78-13.3-6.24-22.88-4-10.21,2.38-20.74,10.63-33.15,26a5.73,5.73,0,0,1-5.38,2.07c-13.47-2.18-48.75-7.34-85.15-8.26-46.18-1.19-78.22,4.74-95.21,17.62a6.08,6.08,0,0,1-5.93.87c-12.61-5-35.78-11.34-49.41,2.42a40.84,40.84,0,0,1-18.25,10.88c-9.1,2.46-22,4.13-31.92-1.85-7.16-4.31-12.08-12.28-14.64-23.69-10.33-46,3.43-69.14,14.48-87.69,6.5-10.92,12.11-20.33,10.59-31.52-5.1-37.28,18.5-68.76,72.13-96.24,13.4-6.87,22.48-14.25,27.77-22.56,4.75-7.47,5.6-14.28,6.28-19.74,1-7.61,1.31-10.46,10.46-12.76,12.63-3.17,38.46-3.09,83.73.26,2.93.68,15.74,3,27.42-5.53s18.21-24.79,19.15-48.28l.14-3.43c1.47-36.44,2.35-58.44-9.77-70.91-7.56-7.77-19.63-11.13-39.15-10.88-11.13.14-18.69-2-23.13-6.49-7.5-7.63-7.06-22.77-6.51-41.94.28-9.43.59-20.11-.12-31.11-.79-12.29.77-27.19,2.28-41.62,3.06-29.25,5.94-56.89-8.17-70.66-6.77-6.61-16.81-9.11-29.8-7.44-24.72,3.19-33.47-10.15-43.61-25.58-10.35-15.74-22.07-33.6-52-31-32.24,2.84-40.37-12.77-62.12-54.48-11.66-22.35-26.16-50.17-49.62-85.36-3.79-5.69-56.37-69.72-88.28-108.48,27,5.15,91,20.22,144.07,54.57a5.46,5.46,0,0,0,1.78.74c.67.13,68.43,14.5,142.24,38.52a5.32,5.32,0,0,0,2.88.11c1.09-.27,110.87-26.52,194.16-21.28,28.94,1.82,43.38,6,52.94,8.71s15.82,4.55,26.39,1.13c9.28-3,21.92-9.95,48.59-25.42,15-8.67,32-6.18,55.54-2.72,19.76,2.9,44.35,6.5,74.93,4,35.67-2.89,72.44-13.37,112.42-32l89.45-41.45a5.29,5.29,0,0,0,3-5.63c-.23-1.44-22.41-144.42,17.88-193.62,6.47-4.82,63.13-47.36,74.66-67.07a1.42,1.42,0,0,1,1.26-.73c13.19.51,47.35,1.66,79.55,1.29,18.49-.22,33.4-.92,44.3-2.09,18.72-2,23.86-5.08,25.81-9.11,3.71-7.65-1-16.8-5.52-25.66-7.83-15.29-9.18-21.15-1.67-25.65,18.75-11.26,72.08-50.25,88-61.93a.21.21,0,0,1,.25,0c9.83,7.52,35.31,12.42,73.72,14.19a144.72,144.72,0,0,0,29.45,17.2c23.83,10.11,43.56,8.61,57-4.32,8.14-7.8,15.22-23.47,21.19-46.76.89,0,1.79,0,2.68,0,23.66,0,47.14-8.31,64.73-14.54,6.47-2.29,12-4.26,16.29-5.32,5.53-1.38,6.49-.6,6.52-.57a1.14,1.14,0,0,1,.08.42c.78,13.32,22.21,26.69,28,30,.84,5.78,4.32,28.84,7.9,38.17,2.16,5.58,1.73,13.58,1.33,21.3-.3,5.64-.57,11,.12,15.43a18.48,18.48,0,0,0,8,12.28,28.11,28.11,0,0,0,21.25,4.2,6.65,6.65,0,0,1,6.78,2.46c3.82,4.52,5.59,15.35,1.34,26.52-1.88,4.94-1.74,9.51.44,13.57C2015.4,1857.42,2023.46,1860.71,2027.31,1862Z" transform="translate(-381 -659.34)"/></g><g id="Line"><path class="cls-8" d="M1650,3340.66a72.25,72.25,0,0,1-12.49-1.13c-15.38-2.72-28.94-1.48-40.91-.38-18.79,1.72-35,3.2-43.81-14.36-3-6-7.28-9.94-12.23-14.45-13.36-12.2-30-27.38-38.26-91.35-4.76-36.84-10-59-16.53-69.76-5.24-8.66-10.76-9.41-19.9-10.65-1.59-.22-3.24-.44-5-.72-16-2.59-46-7.94-62.5-10.89a13.88,13.88,0,0,1-11.09-16.69c6.45-29,6.74-51.88.77-61.15-8.37-13-31.18-22.18-64.22-25.85-28.87-3.2-64.84-2-96.23,3.32-29.35,4.94-44-.71-53.62-4.45-5.39-2.09-8.36-3.14-11.59-2.45-4,.87-9.24,4.66-16.38,11.93-14.32,14.6-32,14.24-49,13.89-16.85-.34-32.75-.66-45.24,13.51a13.45,13.45,0,0,1-17.46,2.46c-10.76-6.94-32.33-19.81-55.82-28.11-28.25-10-49.83-10.14-64.14-.47-10.74,7.25-19.47,3.16-26.48-.13-10.4-4.88-20.23-9.48-43.31,19a16.4,16.4,0,0,1-15.3,5.84c-64.8-10.45-144.09-14-172.28,7.35a16.8,16.8,0,0,1-16.23,2.28c-8.19-3.25-28.29-9.76-38,0a51.47,51.47,0,0,1-23,13.65c-15.91,4.29-29.79,3.25-40.15-3-9.72-5.87-16.28-16.11-19.49-30.44-11.25-50.15,4.34-76.31,15.72-95.41,5.71-9.59,10.22-17.16,9.19-24.68a75.87,75.87,0,0,1,9.81-50.16c12.13-20.88,35-40,68-56.93,25.76-13.2,27.15-24.35,28.38-34.19,1-8.27,2.2-17.65,18.37-21.71,14-3.52,40.18-3.52,87.53,0a5.16,5.16,0,0,1,1,.19,23.89,23.89,0,0,0,19.06-3.85c8.82-6.49,13.89-20.34,14.68-40.06l.14-3.43c1.36-33.61,2.17-53.9-6.78-63.11-5.37-5.51-15.06-7.88-31.44-7.68-14.17.17-24.24-3-30.79-9.65-10.68-10.85-10.16-28.83-9.55-49.66.28-9.64.57-19.62-.1-30.12-.85-13.19.76-28.54,2.31-43.4,2.66-25.46,5.41-51.8-5-62-4.4-4.3-11.3-5.78-21.06-4.52a65.58,65.58,0,0,1-8.47.57c-25.08,0-35.78-16.29-45.33-30.82-10-15.19-18.6-28.32-42.2-26.24-2.76.24-5.38.36-7.88.36-33,0-44-21.13-64.55-60.49-11.54-22.13-25.9-49.67-49-84.39-2.54-3.81-36.58-45.6-88.84-109.08a9.89,9.89,0,0,1,9.45-16c26.25,4.89,93.13,20.09,148.9,55.91,8.52,1.83,71.94,15.78,141,38.15,13.48-3.13,116.26-26.22,195.84-21.21,30.1,1.89,45.2,6.23,55.2,9.11,9,2.58,12.72,3.65,20.22,1.23,8.35-2.71,20.55-9.44,46.53-24.51,18.15-10.53,37.67-7.67,62.38-4,39.58,5.8,93.78,13.76,181.37-27.11l85.87-39.8a636.15,636.15,0,0,1-5.83-76.77c-.68-58.6,8.41-99.58,27-121.8a6,6,0,0,1,.9-.85c17.06-12.65,63.31-48.86,72.36-64.31a12,12,0,0,1,10.79-6c12.44.48,44.73,1.58,75.83,1.31,51.91-.45,62.15-4.46,64.07-5.69.9-3.15-2.68-10.13-5.58-15.79-3.26-6.37-6.63-13-7.54-19.53-1.18-8.53,2.22-15.45,9.84-20,18.36-11,71.35-49.77,87.15-61.39a10.83,10.83,0,0,1,12.94.16c3.79,2.89,18.14,9.87,69.44,12.09a5.29,5.29,0,0,1,3.09,1.17c.49.39,48.69,38.78,73.93,14.58,22.51-21.59,32.52-122.73,34.47-159.87a5.3,5.3,0,0,1,1.26-3.16c9.58-11.2,20.1-23.78,22.67-27.27,1.09-17.09,7.08-32.07,17.8-44.53,5.3-6.16,5.14-12.18,5-19.15-.15-6-.33-12.7,3.89-18.66,4.4-6.22,12.74-10.38,26.24-13.11,13.06-2.63,23.41-2.07,32.54-1.58,20.87,1.13,36.09,2,71.22-39.42-6.84-9.25-25-34.86-27.42-50.14-2-12.4-16.06-25.27-28.47-36.62-14.6-13.38-27.22-24.93-25.07-37.69,1.29-7.65,11.4-9.3,14.72-9.84,6-1,14-1.32,24.58-1.07,18.8.45,41.3,2.69,59.39,4.5,11.76,1.17,23.93,2.39,26.25,2.07,4.43-.74,8.56.43,12.93,1.66,7.29,2.05,14.82,4.17,26.55-1.24,10.77-5,16.28-9,23.25-14.08a246.69,246.69,0,0,1,24.09-15.87,62.28,62.28,0,0,0,10.61-15.38c5.43-11.44,5-21.7-1.32-30.47-10.69-14.87-15-25.19-14.83-35.64.16-11,5.37-22,17.41-36.64,7.07-8.61,12-15.12,16-20.36,8.46-11.11,13.11-17.22,24.86-26.45,2.71-2.13,6-4.23,9.42-6.45,19.16-12.36,45.41-29.28,37.79-83.85-4.06-29.09-10.35-52.07-18.7-68.32-5.18-10.07-11.05-17.34-17.47-21.62-6.89-4.59-20.13-18.83-30-30a13.77,13.77,0,0,1,.3-18.74c8.51-8.95,25.2-25.25,41.3-33.74,7.88-4.16,9-13.37,10.26-23.12,1.06-8.49,2.07-16.51,8.06-21.08,3.46-2.64,8-3.57,13.65-2.76,4.16.6,7.78,1.39,11,2.09,8,1.75,12.86,2.81,19.42,0,7.72-3.37,17.63-12.15,32.13-28.48,22-24.76,41.56-26.17,60.49-27.53,14.66-1.06,28.5-2.06,43.59-14.66,15.93-13.3,52.89-20.45,109.86-21.26,39-.55,74.59,2.16,79.44,2.55,4.82-.57,36.08-3.77,55,7,9.72-3.57,45.78-16.47,73.41-21.8a72.9,72.9,0,0,0,28.46-12c18.73-13.22,21.61-13,23.72-12.81,1.7.15,3.86.89,9.31,4.16a105.36,105.36,0,0,0,55.81,14.86c16.08-.25,29,3.33,38.42,10.63a246.22,246.22,0,0,1,36.82,35.52,65.5,65.5,0,0,1,20-.8c12.59,1.36,31.61,6.89,50.72,25.57,15.54,15.18,23.35,39.38,23.21,71.92a223,223,0,0,1-3.9,39.88c9.22,5.58,34.55,22.27,46.13,43.44a230.74,230.74,0,0,1,23.41-3.38c20.78-1.83,33.74.64,39.6,7.55,17.14,20.21,40.88,43.85,52.49,48,3.59,1.29,7.64,1.34,13.25,1.42,15,.2,37.58.5,81.63,24.9l84.76,3.69a21,21,0,0,1,20.1,19.72c1.45,23.22,3.77,40.37,6.53,48.3,1.56,4.47,4.47,10.57,7.83,17.62,8.43,17.71,19.8,41.59,20.26,62.42,14.08,6.45,70.18,33.16,103.1,63.82a38.7,38.7,0,0,1,8.25,45.59c-7.17,14.36-17,31.67-29.28,51.46-7.51,12.13-6.61,27.52,2.76,47.06,8.56,17.87,22.61,36,35,52,11.69,15.11,21.79,28.16,24.69,37.8,3.38,11.29,7.91,15.67,13.15,20.73,6.87,6.65,14.66,14.19,20.22,36.21a227,227,0,0,1,6.56,58.8c-.36,14.21-2.43,32.85-10.26,41a171.78,171.78,0,0,1-27.83,22.31c-15.28,9.76-25.82,12.27-32.21,7.66-4.68-3.37-9.36-11.66-16.61-24.92-4.12-7.55-8.38-15.35-12.5-21.34-5.47-8-8-8.65-8.3-8.72-4.44.78-18.32,11.44-28.47,19.22-20.7,15.89-31.58,23.6-38.92,23.6a8.81,8.81,0,0,1-3.78-.81c-7.56-3.46-9.71-13.78-11.79-23.77-.87-4.15-2.3-11-3.71-12.52-2-.72-9.57.14-14.11.65-12.82,1.45-26.08,2.95-31.63-5-1.63-2.35-3.41-6.67-5.87-12.65-8.06-19.6-23.08-56.1-45.09-48.07-2.83,1-5.57,2-8.22,3-28.86,10.7-49.72,18.43-74.74,4.13-6.46-3.69-13.83-9.34-22.37-15.89-12.57-9.64-26.82-20.57-41.49-27.63-16.18-7.79-29.72-9.28-41.4-4.56-33.43,13.51-100.31,43.85-118.49,52.13a79,79,0,0,1,4.69,25.27c.29,16.09-4.6,39.6-29.59,60.2-19.29,15.91-37,26.35-52.51,31a55.8,55.8,0,0,1-13.92,2.52,57.87,57.87,0,0,1-7.05,16.61c-6.41,10.38-19.43,24.32-45,31.75-23,6.7-48.36,17-67.73,27.44-24.36,13.19-30.29,21.77-30,24.47.4,4,3.15,10.15,6.33,17.29,8.1,18.17,19.19,43.06,9.65,69.88-5.13,14.42-4.35,24.24-3.67,32.91.94,11.92,1.82,23.17-13.93,38.16-11.51,11-38.72,38.13-62.74,64.42-13.33,14.59-23.87,26.92-31.34,36.64-10.84,14.12-12.27,19-12.45,20.2,6.75,13.64,13.32,32.82,7.1,47.83-3.4,8.22-10.11,14-19.94,17.32-15.18,5.06-37.54,17.24-57,31-21.32,15.13-35.83,30-38.8,39.67-.46,1.48-1,3.24-1.58,5.25-4.58,15.36-14.12,47.32-29.13,78.31-18.76,38.73-40.42,64.53-64.37,76.67-8.29,4.2-15.86,7.8-23.18,11.27-20.49,9.73-36.68,17.42-47.19,28.92-10.87,11.89-15.91,28.4-16.37,53.55a5.33,5.33,0,0,1-.86,2.8c-.16.24-15.79,24.14-34.48,48.7-26,34.15-44.6,52.53-56.88,56.2-10.39,3.1-23.55,4.68-37.49,6.36-23.23,2.79-49.55,6-72.85,16.77l-9,4.19c-22.65,10.62-35.12,16.47-45.28,12.76-5.26-1.92-9.29-6.24-12.66-13.59-6.33-13.74-21.2-35.65-36.28-39.69a15.56,15.56,0,0,0-13.77,2.54c-16.92,11.95-20.42,16.85-21,17.75a5.09,5.09,0,0,1-.38,1c-1.58,3.05-39,75.06-79.73,111-6.7,5.91-12.7,11-18,15.58-27.76,23.81-34.25,30.06-32.6,46.56,1.79,17.94-5,35.54-9.35,44.59,14.82,3.91,50.08,14.79,65.69,33.31,8.2-1.6,28.56-3.79,42.71,9.84,15,14.45,17.67,41.59,7.9,80.65-2.25,9-4.2,16.66-5.92,23.41-3.54,13.9-5.87,23.08-7.06,29.19-1.22,6.32-.89,7.92-.74,8.29a18,18,0,0,0,3.08,1.6c6.63,3,17.55,8,32.07,30.62,11.22-.78,47.18-1.63,64.2,17.6,8.66,9.79,11.08,23,7.19,39.16-6.07,25.32,9.51,42.21,27.55,61.77,21,22.76,44.78,48.55,36.77,92.63-5.6,30.78-4.1,45.33-3.29,53.15.56,5.4,1,9.3-2.06,12.9-2.41,2.87-6.22,4.46-13.82,7.61-3.85,1.6-8.64,3.59-14.8,6.36-21.14,9.52-36.3.45-49.68-7.55-20.38-12.18-39.62-23.69-84.52,18.48-18.31,17.21-31.92,24.94-44,24.94h-.77c-11.72-.32-19.76-7.88-28.28-15.87-16.68-15.65-37.45-35.14-99.84-8.06a5.32,5.32,0,0,1-3.15.34l-51.65-10.34c1.14,8.24,1.39,21.24-5.12,33.06-6.07,11-16.59,18.56-31.27,22.42-17.72,4.66-30.71,12.26-43.26,19.61C1683.71,3332.21,1669.27,3340.66,1650,3340.66Zm-32-13.33a122.58,122.58,0,0,1,21.4,1.78c22.06,3.9,36.23-4.39,54.16-14.89,12.55-7.35,26.78-15.68,45.91-20.71,11.74-3.09,20-8.89,24.66-17.23,8.16-14.72,2.63-33,2.57-33.19a5.29,5.29,0,0,1,6.09-6.76l57.87,11.57c67.62-28.84,92-6,109.76,10.71,7.62,7.15,13.64,12.79,21.34,13,9,.25,21.14-7,37.2-22.06,22.34-21,41.6-31.62,58.89-32.52,15.74-.82,27.73,6.34,38.3,12.66,13.3,8,23.8,14.24,39.91,7,6.3-2.84,11.17-4.86,15.08-6.49,4.54-1.88,8.83-3.66,9.72-4.57a29.43,29.43,0,0,0-.3-5.08c-.86-8.34-2.47-23.88,3.4-56.14,7.07-38.89-13.88-61.59-34.13-83.56-9.55-10.34-18.56-20.11-24.61-31.34-7-13-8.8-26.11-5.45-40.07,3.08-12.82,1.5-22.53-4.83-29.68-16.28-18.39-58-13.85-58.44-13.8a5.31,5.31,0,0,1-5.11-2.49c-13.69-22.25-23.39-26.67-29.19-29.32-4.57-2.08-9.76-4.45-9.39-13.64.24-6.21,2.75-16.07,8.25-37.66,1.72-6.75,3.66-14.39,5.91-23.38,8.66-34.62,6.93-59-5-70.47-13.34-12.85-35.78-6.52-36-6.46a5.3,5.3,0,0,1-5.81-2c-15.29-21.85-67.65-33.45-68.18-33.57a5.28,5.28,0,0,1-3.41-7.88c.13-.22,13.34-22.64,11.17-44.35-2.26-22.62,9-32.29,36.25-55.64,5.26-4.51,11.22-9.62,17.87-15.49,37.24-32.86,73.08-99.84,77-107.26.9-2.94,5.11-9.12,25-23.18a26.29,26.29,0,0,1,22.62-4.12c20,5.37,36.53,31.12,43.14,45.49,2.79,6.07,5.16,7.52,6.7,8.08,6,2.2,18.4-3.61,37.15-12.4q4.26-2,9-4.21c24.83-11.52,52-14.79,76-17.68,13.48-1.62,26.21-3.15,35.73-6,5.58-1.67,19.69-10.7,51.46-52.43,16-21.07,29.8-41.67,33.25-46.87,1.49-58,27.21-70.18,69.57-90.29,7.26-3.45,14.77-7,22.93-11.15,51.63-26.18,79.11-118.3,88.14-148.57l1.6-5.33c8.57-28,72.52-67.62,102.54-77.63,6.89-2.3,11.31-6,13.52-11.34,3.72-9,1.22-23-7.06-39.58-2.19-4.4-1.13-10.75,11.21-27.41,7.29-9.86,18-22.63,31.95-38,24.75-27.29,53.5-56,65.81-67.75,12.1-11.52,11.57-18.35,10.68-29.67-.73-9.24-1.64-20.74,4.25-37.28,8.11-22.84-1.57-44.57-9.35-62-3.56-8-6.63-14.87-7.2-20.55s2.86-11.66,10.46-18.29c5.93-5.18,14.36-10.74,25.06-16.54,20-10.82,46.08-21.39,69.81-28.29,17.71-5.14,30.72-14.12,38.67-26.67,5.93-9.37,6.71-17.4,6.71-17.47a5.21,5.21,0,0,1,2.13-3.93,5,5,0,0,1,4.28-.8c1.18.18,22.07,2.65,62.92-31,17.32-14.28,26-31.58,25.75-51.42a66.24,66.24,0,0,0-5.68-26.2,5.29,5.29,0,0,1,2.52-7.19c.84-.39,84.64-38.71,123.56-54.43,32.42-13.1,67.61,13.89,93.3,33.6,8.23,6.31,15.34,11.76,21.17,15.1,20.74,11.84,37.71,5.55,65.83-4.87q4-1.49,8.27-3c9.64-3.51,24.18-3.65,38.7,15.68,8.92,11.86,15.46,27.78,19.8,38.31,1.86,4.54,3.79,9.23,4.77,10.63.1.14,1.13,1.4,6.54,1.6a110.45,110.45,0,0,0,15.21-1.06c10-1.13,16.3-1.7,20.5.63,5.41,3,7,10.69,8.86,19.59,1.05,5,3,14.23,5.49,16.11.92-.15,4-1,11.58-6.14,6.2-4.15,13.54-9.77,20.63-15.22,16.31-12.52,26.65-20.24,33.34-21.29,10.56-1.65,19,12.29,31.66,35.45,4.69,8.58,10.53,19.27,13.5,21.41.95.69,6.74.69,20.34-8a162.6,162.6,0,0,0,25.91-20.73c3.2-3.31,6.79-14,7.3-33.89a216.4,216.4,0,0,0-6.24-55.94c-4.83-19.1-10.9-25-17.33-31.19-5.77-5.59-11.75-11.37-15.92-25.3-2.33-7.76-12.34-20.69-22.93-34.37-12.71-16.43-27.12-35-36.17-53.93-11.05-23-11.77-41.76-2.21-57.2,12.09-19.52,21.78-36.55,28.81-50.61a28.28,28.28,0,0,0-6-33.13c-35.73-33.28-102.67-63-103.34-63.32a5.3,5.3,0,0,1-3.15-5.06c.8-19-10.77-43.31-19.21-61-3.5-7.34-6.51-13.67-8.26-18.69-3.94-11.29-6-34-7.11-51.12a10.46,10.46,0,0,0-10-9.82l-86-3.74a5.22,5.22,0,0,1-2.35-.66c-42.44-23.7-63.66-24-77.71-24.18-6.13-.08-11.43-.15-16.69-2-18.6-6.68-50.73-43.76-57-51.13-1.21-1.43-7-5.92-30.5-3.87a223.16,223.16,0,0,0-26.17,4,5.29,5.29,0,0,1-6-3c-11.05-24.3-46.57-44.17-46.93-44.36a5.29,5.29,0,0,1-2.59-5.83c.17-.74,16.75-74.06-15.6-105.68-13.44-13.13-28.22-20.72-43.92-22.55-11.73-1.37-19.65,1.16-19.73,1.18a5.32,5.32,0,0,1-5.85-1.77,233.25,233.25,0,0,0-37.13-36.35c-7.47-5.79-18.18-8.62-31.78-8.41h-1.84A115.82,115.82,0,0,1,2812,672.61a46.16,46.16,0,0,0-4.54-2.49c-1.48.63-5.83,2.86-17,10.71a83.57,83.57,0,0,1-32.56,13.76c-30.64,5.9-73.7,22-74.13,22.21a5.26,5.26,0,0,1-4.82-.56c-13.6-9.17-41.2-7.93-50.69-6.68a5.44,5.44,0,0,1-1.14,0c-.37,0-37.77-3.15-79-2.56-53.67.76-89.34,7.27-103.15,18.8-17.7,14.79-33.93,15.95-49.61,17.08-17.59,1.27-34.21,2.47-53.34,24-15.78,17.78-26.49,27.09-35.81,31.15-9.71,4.23-17.21,2.59-25.91.69-3.16-.69-6.43-1.41-10.22-2-2.68-.39-4.61-.15-5.73.7-2.46,1.88-3.23,8-4,14-1.36,10.88-3.06,24.43-15.82,31.16-14.76,7.78-30.49,23.18-38.56,31.67a3.24,3.24,0,0,0-.06,4.43c13.2,14.87,23.4,25.14,28,28.19,7.93,5.29,15,13.9,21,25.59,8.89,17.3,15.54,41.42,19.77,71.69,3.75,26.87.26,48.19-10.66,65.19-9.28,14.43-21.81,22.51-31.88,29-3.38,2.17-6.29,4-8.61,5.87-10.69,8.4-14.8,13.8-23,24.55-4,5.3-9.06,11.9-16.25,20.66-20.63,25.12-18.76,36.32-2.18,59.4,8.66,12,9.41,26.38,2.16,41.47a71.55,71.55,0,0,1-13.08,18.55,5,5,0,0,1-1,.79,236.87,236.87,0,0,0-23.76,15.63c-7.15,5.22-13.33,9.72-25.05,15.13-15.28,7-26,4-33.86,1.82-3.34-.94-6.22-1.76-8.34-1.4-3.27.54-11.73-.26-29-2-16.53-1.65-37.1-3.7-54.74-4.33-25.14-.9-31.24,1.71-32.54,2.56-.49,7.08,10.87,17.48,21.86,27.55,13.67,12.52,29.16,26.7,31.76,42.73,2.13,13.16,20.87,39.67,27.91,48.77a5.29,5.29,0,0,1-.11,6.62c-18.35,22.1-33.33,35.33-47.15,41.64-13.11,6-24,5.41-35.46,4.78-8.92-.48-18.14-1-29.88,1.39-10.55,2.13-17,5-19.69,8.84-2.19,3.1-2.09,7.15-1.95,12.28.19,7.61.44,17.07-7.52,26.33-9.19,10.68-14.33,23.57-15.27,38.32a13,13,0,0,1-.27,2.34c-.35,1.42-.69,2.75-23.75,29.76-.46,7.54-2.46,37.64-7.13,70-7.35,50.81-17.6,82.83-30.48,95.18-13.48,12.93-33.21,14.43-57,4.33a144.52,144.52,0,0,1-29.45-17.22c-38.41-1.77-63.89-6.66-73.72-14.18a.21.21,0,0,0-.25,0c-15.89,11.69-69.22,50.69-88,61.94-7.51,4.5-6.16,10.35,1.68,25.65,4.53,8.86,9.22,18,5.51,25.66-2,4-7.08,7.12-25.8,9.11-10.91,1.16-25.82,1.86-44.31,2.08-32.2.38-66.36-.77-79.55-1.28a1.42,1.42,0,0,0-1.25.72c-11.55,19.71-68.2,62.26-74.67,67.08-40.29,49.2-18.11,192.18-17.88,193.62a5.29,5.29,0,0,1-3,5.63l-89.44,41.45c-40,18.65-76.75,29.13-112.42,32-30.58,2.48-55.18-1.13-74.93-4-23.56-3.45-40.58-5.95-55.54,2.73-26.67,15.47-39.31,22.42-48.59,25.42-10.57,3.42-16.87,1.61-26.39-1.13s-24-6.89-52.94-8.71c-83.28-5.25-193.06,21-194.16,21.28a5.32,5.32,0,0,1-2.88-.12c-73.81-24-141.56-38.38-142.24-38.52a5.06,5.06,0,0,1-1.78-.74C483.62,2152,419.6,2137,392.64,2131.81c31.91,38.76,84.49,102.79,88.28,108.47,23.46,35.19,38,63,49.62,85.37,21.75,41.71,29.88,57.32,62.12,54.48,29.9-2.63,41.63,15.22,52,31,10.14,15.43,18.89,28.77,43.6,25.58,13-1.68,23,.82,29.81,7.44,14.11,13.77,11.22,41.4,8.17,70.66-1.51,14.42-3.07,29.33-2.28,41.62.71,11,.4,21.68.12,31.11-.55,19.16-1,34.3,6.52,41.94,4.43,4.5,12,6.63,23.12,6.49,19.52-.25,31.59,3.11,39.15,10.88,12.12,12.47,11.24,34.46,9.77,70.9l-.14,3.44c-.94,23.48-7.38,39.73-19.15,48.28s-24.49,6.21-27.42,5.53c-45.27-3.35-71.1-3.43-83.73-.26-9.15,2.3-9.51,5.14-10.46,12.76-.68,5.47-1.53,12.27-6.28,19.74-5.29,8.31-14.37,15.69-27.77,22.55-53.63,27.49-77.23,59-72.13,96.25,1.53,11.18-4.09,20.61-10.59,31.52-11.05,18.55-24.8,41.64-14.48,87.69,2.56,11.4,7.48,19.37,14.64,23.69,9.89,6,22.82,4.31,31.92,1.85a40.94,40.94,0,0,0,18.24-10.88c13.64-13.76,36.81-7.43,49.41-2.42a6.07,6.07,0,0,0,5.94-.88c17-12.87,49-18.8,95.21-17.62,36.4.93,71.67,6.09,85.15,8.26a5.74,5.74,0,0,0,5.38-2.06c12.41-15.33,22.94-23.57,33.15-25.95,9.58-2.24,17,1.22,22.88,4,7,3.27,10.55,4.67,16.07.94,17.24-11.64,42-11.89,73.59-.73,24.5,8.65,46.87,22,58,29.19a2.9,2.9,0,0,0,3.79-.57c15.74-17.85,35.75-17.44,53.4-17.08,16.15.33,30.1.61,41.22-10.72,18.43-18.78,26.56-16.89,39.33-11.95,9.1,3.52,21.57,8.35,48,3.89,32.78-5.52,68.92-6.76,99.15-3.4,25.66,2.85,59,10.48,72,30.63,10.37,16.12,4.86,50.26.65,69.18a3.27,3.27,0,0,0,.48,2.56,3.32,3.32,0,0,0,2.16,1.42c16.46,3,46.43,8.28,62.32,10.86,1.61.26,3.19.47,4.72.68,9.66,1.31,19.66,2.67,27.52,15.65,7.4,12.22,13,35,18,73.88,7.77,60.13,22.82,73.86,34.91,84.9,5.48,5,10.66,9.74,14.55,17.53,5.33,10.65,14.09,10.32,33.39,8.56C1602.23,3328,1609.73,3327.33,1617.94,3327.33Zm423.18-809.09v0Zm0,0v0Zm0,0v0Zm0,0v0Zm0,0v0Zm-5.29,0ZM1575.4,1834.54Zm1849.08-264.63Zm-616.4-900Zm-1.3,0Z" transform="translate(-381 -659.34)"/><path class="cls-8" d="M1393.8,3120.86a2.64,2.64,0,0,1-1-5.11c.16-.06,15.89-6.13,32-13.18,29.54-12.93,33.78-17.5,34.38-18.59,2.1-3.85,2.48-10.2,2.85-16.35.41-6.72.83-13.68,3.49-18.56.72-1.31,1.55-2.78,2.43-4.33,5.06-9,12-21.22,14-32.91,1.12-6.74,7.07-12.86,14.61-20.6,10-10.28,22.45-23.06,28.3-42.4,11-36.25,17-76.56-13.21-125.56-32.53-52.86-30.47-81.69-27.35-125.32,1.23-17.29-1.12-32-3.19-45-3.25-20.36-6.06-37.94,6-57,9.23-14.61,13-26,16.25-36.11,3.51-10.72,6.53-20,14.89-30,8.55-10.26,20.59-10.83,33.34-11.43s25.79-1.21,37.59-11.11c12.2-10.24,44.15-36,74-58.77,57.28-43.77,62.23-43,64.61-42.55,3,.49,29.49-1.07,57.56-2.73,28.73-1.7,64.48-3.82,93.31-4.88,44.84-1.66,53.66-.1,56.37,1.64,8.15,5.24,16.36,24.8,23.61,42.06,3.33,7.92,6.47,15.4,9,20l.06.11c8.11,14.59,27.09,48.76,63.91,63.21a2.64,2.64,0,1,1-1.93,4.92c-38.59-15.14-58.22-50.47-66.6-65.56l-.06-.11c-2.68-4.81-5.87-12.42-9.26-20.48-6.6-15.73-14.82-35.31-21.59-39.66-1.32-.79-9.21-2.45-53.59-.8-28.72,1.07-64.32,3.17-92.92,4.86-35.92,2.13-55,3.22-58.64,2.69-1.69.11-11.08,3.61-61.71,42.35-29.44,22.52-60.78,47.8-72.69,57.79-13.17,11.05-27.82,11.74-40.74,12.35-12,.56-22.47,1.05-29.53,9.53-7.7,9.24-10.58,18.06-13.92,28.26-3.39,10.37-7.23,22.13-16.81,37.3-11,17.36-8.43,33.23-5.22,53.32,2.12,13.26,4.52,28.29,3.24,46.2-3,42.61-5,70.76,26.59,122.17,31.24,50.78,25.08,92.42,13.76,129.86-6.22,20.57-19.17,33.87-29.57,44.55-6.62,6.81-12.34,12.68-13.19,17.79-2.1,12.61-9.3,25.34-14.56,34.64-.87,1.54-1.68,3-2.38,4.27-2.1,3.84-2.49,10.2-2.86,16.34-.41,6.72-.83,13.68-3.49,18.56-.93,1.71-3.41,6.25-36.91,20.91-16.21,7.1-32,13.21-32.2,13.27A2.6,2.6,0,0,1,1393.8,3120.86Z" transform="translate(-381 -659.34)"/><path class="cls-8" d="M1866.87,2403a2.64,2.64,0,0,1-2.06-1,23,23,0,0,1-4.15-13.58c0-10.71,6.33-21.41,18.8-31.8,16.61-13.84,18-20.54,20-29.82a70.25,70.25,0,0,1,9.18-24.23,202.6,202.6,0,0,1,12.18-17.69c13.08-17.59,24.38-32.79,11.58-55.83-17.14-30.86-23.62-47-16.71-60.77,4.06-8.14,11.84-13.42,19.35-18.54a76.49,76.49,0,0,0,10.89-8.33c3.62-3.62,15.59-22.09,27-42.79,16-29.09,18.6-40.33,17.75-42.21-1.33-2.64-3.54-4.78-5.88-7-5.32-5.14-11.93-11.54-11-26.93.68-12.09,8.4-33.21,15.39-49,3.45-7.77,15.45-33.65,25-40.56,8.52-6.2,12.91-45.86,13.79-70.85-3.86-1.23-11.91-4.52-15.46-11.16-2.17-4.07-2.32-8.63-.44-13.57,4.26-11.17,2.49-22-1.34-26.52a6.67,6.67,0,0,0-6.78-2.47,28.07,28.07,0,0,1-21.25-4.19,18.54,18.54,0,0,1-8-12.28c-.69-4.47-.41-9.79-.12-15.44.41-7.72.82-15.71-1.33-21.29-3.58-9.33-7.06-32.4-7.9-38.17-5.75-3.36-27.18-16.74-28-30a.89.89,0,0,0-.09-.43s-1-.8-6.52.58c-4.24,1-9.82,3-16.29,5.32-17.59,6.23-41.06,14.54-64.73,14.54q-3.81,0-7.6-.3a2.64,2.64,0,0,1,.42-5.27c25,2,51.12-7.22,70.15-14,14.44-5.11,23.15-8.19,27.5-5.31a5.55,5.55,0,0,1,2.44,4.52c.58,9.86,19.26,22.4,26.41,26.4a2.66,2.66,0,0,1,1.33,1.94c0,.29,4,28.38,7.78,38.29,2.55,6.64,2.11,15.19,1.67,23.47-.28,5.36-.54,10.43.06,14.36a13.31,13.31,0,0,0,5.87,8.75,22.67,22.67,0,0,0,17.18,3.33,11.94,11.94,0,0,1,11.85,4.24c5.83,6.89,6.75,20,2.24,31.82-1.33,3.49-1.28,6.49.16,9.19,3.5,6.58,14,9.08,14.1,9.11a2.63,2.63,0,0,1,2,2.65c0,.17-.49,16.68-2.58,34.15-2.92,24.39-7.32,38.42-13.45,42.88-12,8.73-37,64.69-38.18,85.53-.74,13,4.21,17.76,9.45,22.83,2.55,2.48,5.2,5,6.93,8.49.94,1.89,3.82,7.64-17.75,46.93-10.69,19.48-23.5,39.71-28,44.17-3.24,3.25-7.33,6-11.65,9-7,4.74-14.15,9.63-17.6,16.53-5.24,10.47-1.36,23.52,16.6,55.84,14.46,26,1.63,43.29-12,61.56a197,197,0,0,0-11.88,17.22,66,66,0,0,0-8.56,22.64c-2,9.53-3.76,17.77-21.77,32.78-26.06,21.72-14.4,37.38-13.89,38a2.65,2.65,0,0,1-2.09,4.28Z" transform="translate(-381 -659.34)"/><path class="cls-8" d="M2030.56,1862.72a2.65,2.65,0,0,1-1.68-4.69c.18-.15,18.32-15.19,22.77-25.57,3.12-7.28,14.81-5.62,28.34-3.69,12.14,1.72,25.89,3.68,31.91-1.28,3.3-2.72,7.16-5.3,10.89-7.8,13.87-9.28,22-15.64,17.71-25.6-.68-1.59-1.41-3.2-2.11-4.75-6.81-15.17-13.85-30.84,3.72-55.73,2.84-4,5.83-8,8.72-11.93,16.16-21.76,31.43-42.31,27.56-69.46-2.63-18.37,10.13-26.87,21.39-34.38,12.26-8.17,19.59-13.82,16-26.34-4.45-15.34-13.94-16.46-23.11-17.55-7-.83-15-1.77-15.86-11.5a153.4,153.4,0,0,1,1.32-37.08c2.92-16.87,8.91-27.19,17.8-30.67,2.88-1.12,5.56-2,7.93-2.86,12.76-4.41,18.58-6.42,23-27.73,3-14.71,5.87-20.89,10.48-22.82,4.84-2,10,1.33,17.22,6l.12.08a37.64,37.64,0,0,1,12.33,13.16c2.51,4,3.55,5.45,6.86,5.45a10,10,0,0,0,7.9-3.15c3.66-4.06,5-12.38,3.75-24.07-1.83-17.73,3.2-20.93,11.57-24.69a43.7,43.7,0,0,0,8.53-4.69c6-4.37,11.25-19.43,15.9-32.72,4.16-11.88,8.09-23.11,12.92-29.42,6.37-8.33,15.82-9.35,23.42-10.17,5.25-.57,9.79-1.06,11.26-3.77,1.22-2.24.76-6.41.31-10.45-.66-5.93-1.41-12.64,2.52-17.2,2.52-2.93,6.47-4.45,12.09-4.66,6.83-.25,13.52-2.32,20-4.33,13-4,26.51-8.2,37.66,5.29,3.65,4.42,6.57,6.92,8.67,7.43,1.46.35,2.65-.24,4.79-1.4,3.14-1.69,7.43-4,14.52-2.14,5.86,1.54,9.69,7.68,13.74,14.18,3.89,6.22,8.29,13.28,14.84,16.81,7.45,4,17,3,29.06-3,19.54-9.77,34.45-21,45.34-29.23,6.66-5,11.92-9,16.32-11.26,2-1,8.17-4.21,12.74.13,5.36,5.09,6,18,6.66,31.73.49,10,1,21.24,3.79,24.3,12.52,13.9,15.58,27.19,9.1,39.49s-8.2,25.76-5.3,40.29c.71,3.53.59,8,.46,12.62-.34,12.28-.73,26.19,11.84,34.05,7.53,4.7,15.63,5.28,24.22,5.89,12.11.86,24.64,1.76,35.85,14.43,17.32,19.57,45.93,26.87,59.89,26.87,2,0,4.79-.14,8-.29,15.51-.77,38.95-1.92,48.13,8,3.08,3.35,4.3,7.62,3.63,12.68-1.78,13.34-2.89,27.14,4.65,36.43,5.7,7,15.84,11,31,12.15,23.1,1.74,36.18,10,48.83,17.89,10.63,6.66,20.66,13,36.15,14.74a2.64,2.64,0,1,1-.6,5.25c-16.68-1.91-27.7-8.83-38.36-15.51-12.1-7.6-24.62-15.45-46.42-17.1-16.68-1.26-28-5.87-34.71-14.09-8.86-10.93-7.72-26-5.78-40.46.46-3.48-.29-6.22-2.28-8.4-7.5-8.15-30.34-7-44-6.35-3.26.16-6.07.3-8.24.3-15.47,0-45.25-7.63-63.85-28.66-9.78-11-20.7-11.83-32.27-12.65-8.85-.63-18-1.29-26.65-6.69-15.13-9.46-14.66-26.35-14.32-38.67.12-4.37.24-8.5-.35-11.44-3.11-15.53-1.1-30.68,5.8-43.79,5.41-10.28,2.68-21.24-8.35-33.49-4-4.46-4.53-15.18-5.14-27.58-.54-10.93-1.2-24.53-5-28.16-3.07-2.92-11.11,3.14-22.22,11.52s-26.19,19.76-46.16,29.74c-8.58,4.29-15.66,6-21.57,6-15.63,0-23.21-12.16-29.18-21.75-3.49-5.58-6.77-10.85-10.6-11.86-5.08-1.34-7.79.13-10.66,1.68-5.67,3.07-10.43,4.34-20.06-7.31-8.89-10.76-19.1-7.6-32-3.6-6.8,2.1-13.84,4.28-21.37,4.56-4,.14-6.79,1.09-8.27,2.82-2.43,2.81-1.84,8.08-1.28,13.17s1.1,9.86-.92,13.57c-2.8,5.13-8.89,5.79-15.33,6.48-7.28.79-14.8,1.6-19.79,8.13-4.31,5.64-8.29,17-12.13,28-5.38,15.37-10.47,29.89-17.76,35.24a49,49,0,0,1-9.49,5.25c-6.88,3.08-10,4.49-8.48,19.31,1.41,13.6-.25,22.81-5.08,28.16-2.93,3.25-6.91,4.9-11.83,4.9-6.42,0-8.82-3.86-11.35-8-2.22-3.59-4.74-7.65-10.71-11.51l-.12-.08c-5.61-3.63-10-6.5-12.3-5.55-3.76,1.58-6.46,14.7-7.35,19-5,24.26-13.06,27-26.43,31.65-2.43.84-4.94,1.71-7.72,2.8-8.79,3.44-12.75,16.39-14.52,26.64a147.8,147.8,0,0,0-1.26,35.7c.45,5,3.27,5.79,11.21,6.73,9.35,1.1,22.15,2.62,27.56,21.33,4.89,16.88-6.8,24.67-18.1,32.21-10.93,7.28-21.25,14.17-19.1,29.23,4.19,29.31-12.46,51.71-28.55,73.37-2.87,3.86-5.83,7.85-8.64,11.82-15.83,22.42-9.7,36.06-3.21,50.51.71,1.58,1.44,3.2,2.14,4.83,6.31,14.73-7.47,24-19.63,32.09-3.62,2.42-7.37,4.93-10.47,7.49-7.81,6.43-22.15,4.39-36,2.42-9.44-1.34-21.2-3-22.73.54-5,11.57-23.48,26.93-24.27,27.58A2.66,2.66,0,0,1,2030.56,1862.72Z" transform="translate(-381 -659.34)"/><path class="cls-8" d="M2972.42,1187.09a64.31,64.31,0,0,1-22.92-4c-3.58-1.38-7.15-2.59-10.61-3.76-16.15-5.49-31.42-10.67-29.94-29.06,1.15-14.38-3.29-33.6-11.74-39.3-3.14-2.12-6.62-2.17-10.62-.17a91.36,91.36,0,0,0-9.26,5.53c-6.39,4.18-12.41,8.13-21.18,7.62-9.24-.53-20.28-5.89-35.78-17.36-15.79-11.68-24.09-13.76-28.55-14.87-7.71-1.93-7.89-3.62-9.63-19.75-.26-2.49-.57-5.36-1-8.68-1-8.83-2.06-11.81-2.63-12.8-1.23,1-3.44,4.08-5.1,6.42-6.19,8.68-15.54,21.81-29.78,19.22-29.12-5.29-48.95-16.94-58.94-34.61-4.25-7.53-11.65-5.65-23.34-1.66-9.19,3.15-18.71,6.4-25.94.87-7.55-5.78-2.94-18,1.94-30.85,3.63-9.59,7.75-20.45,4.88-25.55-1-1.74-2.84-2.85-5.7-3.39-5.2-1-12.65-1.51-21.27-2.13-32.65-2.35-82-5.9-84-40.77-.38-6.48-2.65-11.43-7-15.14-12.72-11-40-8.5-59.9-6.7-10.27.93-17.68,1.61-21.69.43l-.65-.19c-7.22-2.12-16.21-4.76-20.9-13.83-4.87-9.43-3.84-23.86,3.14-44.12,9-26.18,16.91-29.39,26.89-33.46,7.91-3.23,16.87-6.89,29.8-24.36a344.61,344.61,0,0,0,21.91-34c10.16-17.45,16.39-28.16,32.2-28.16l1.26,0c5.51.19,13.94.92,23.7,1.76,28.69,2.48,76.72,6.63,87.26-1.25,3-2.25,4.91-7,4.85-12.05-.05-4.65-1.78-13.62-12.74-21.43a2.65,2.65,0,0,1,3.07-4.31c12.86,9.17,14.89,20,15,25.68.08,6.81-2.59,13.07-7,16.34-11.23,8.4-49.4,5.88-90.88,2.29-9.69-.84-18.06-1.56-23.44-1.74-13.58-.47-18.32,7.67-28.7,25.51a350.4,350.4,0,0,1-22.23,34.5c-13.81,18.66-23.92,22.79-32,26.1-9.08,3.71-15.65,6.38-23.89,30.3-6.4,18.55-7.55,32-3.44,40,3.65,7.06,11.11,9.24,17.69,11.17l.65.19c3,.9,11.14.16,19.72-.61,20.85-1.89,49.41-4.48,63.83,7.95,5.37,4.63,8.32,11,8.78,18.85.76,13.17,9.76,22.36,27.52,28.11,15.8,5.11,35.64,6.54,51.58,7.69,8.78.63,16.37,1.17,21.87,2.2,4.42.83,7.57,2.85,9.33,6,4.08,7.25-.31,18.82-4.54,30-3.8,10-8.1,21.39-3.68,24.78,5,3.81,12.78,1.15,21-1.67,10.75-3.67,22.93-7.84,29.65,4.06,9.19,16.24,27.79,27,55.29,32,10.93,2,18.78-9,24.52-17.09,4-5.65,6.93-9.74,10.72-8.76,3.48.9,5.2,5.51,6.58,17.61.38,3.34.69,6.22.95,8.72.8,7.46,1.25,11.58,2,13.39.38.88.61,1,3.62,1.79,4.81,1.2,13.77,3.44,30.41,15.75,30.75,22.76,38.77,17.51,50.92,9.56a96.1,96.1,0,0,1,9.78-5.83c5.71-2.85,11.22-2.67,16,.52,11.5,7.76,15.14,30.46,14,44.1s8.8,17.66,26.37,23.63c3.51,1.19,7.13,2.42,10.81,3.83,19.29,7.42,45.47,2.41,56.89-6.73,12.21-9.77,63.08-33,95.66-37.84,5.69-.85,10.76-1.45,15.24-2,20.61-2.46,30-3.58,45-21.67,12.69-15.34,34.22-23.52,48.46-28.94,5.82-2.21,13.05-5,14-6.47s-.62-11.83-7.73-28.77c-6.77-16.12-14.95-29.29-21.9-35.25-17.14-14.69-27.9-66.21-28.35-68.39a2.64,2.64,0,1,1,5.18-1.07c.11.52,10.84,51.92,26.62,65.45,7.62,6.53,16.41,20.62,23.52,37.68,2.62,6.27,10.86,27.21,7.14,33.15-1.8,2.89-6.66,4.84-16.6,8.62-13.72,5.21-34.46,13.1-46.27,27.36-16.32,19.72-27.73,21.08-48.43,23.55-4.44.53-9.47,1.13-15.09,2-31.21,4.69-81.6,27.51-93.13,36.74C3003.09,1182.39,2987.9,1187.09,2972.42,1187.09Z" transform="translate(-381 -659.34)"/><path class="cls-8" d="M2600.89,1299.22a2.65,2.65,0,0,1-2.41-1.55c-6.25-13.79-18.84-46.72-19-47.05a2.41,2.41,0,0,1-.08-.25l-6.88-25.15a43,43,0,0,1,41.47-54.34,14.58,14.58,0,0,0,14.35-12l4-21.57a2.61,2.61,0,0,1,1.34-1.85c28.53-15.46,46.92-35.91,53.17-59.14,4.67-17.39,1-30.22.94-30.34a2.65,2.65,0,1,1,5.07-1.51c.17.58,4.15,14.41-.91,33.22a83.26,83.26,0,0,1-16.19,31c-9.45,11.6-22.38,22-38.45,30.82l-3.73,20.34a19.88,19.88,0,0,1-19.55,16.29,37.71,37.71,0,0,0-36.37,47.65l6.84,25c.85,2.2,12.8,33.42,18.8,46.63a2.65,2.65,0,0,1-1.32,3.5A2.69,2.69,0,0,1,2600.89,1299.22Z" transform="translate(-381 -659.34)"/><path class="cls-8" d="M2054.08,1836.15a2.65,2.65,0,0,1-2.46-1.69c-.18-.45-18-46.4-23.68-89.46l-.23-1.75c-5.11-38.88-5.11-38.88-29.3-67.72l-3.47-4.14c-7.67-9.16-10.48-15.78-9.1-21.47,1.85-7.66,10.93-11.5,22.43-16.35s25.68-10.83,37.62-22.48c20.07-19.58,25-19.55,29.71-17.39,1.08.5,1.74.8,5-1.82,3-2.43-2.81-10.66-9-19.37-11.66-16.47-27.63-39-17.58-62.89,5.18-12.32,9.06-18.88,13.38-22.66,4.49-3.92,9.25-4.63,15.28-5.53a97,97,0,0,0,28.22-8.1c4.74-2.11,7.26-4.67,7.71-7.82,1.43-10-16.52-25.25-29.62-36.38-12-10.16-17.2-14.82-16.21-18.94a4.47,4.47,0,0,1,3.69-3.25c6-1.42,14.86-8.63,25-20.31a21.59,21.59,0,0,1,27-4.68c10,5.72,18.53,6.5,25.43,2.3,8.11-4.94,15.35-17.86,20.38-36.38a10.32,10.32,0,0,1,16.87-4.93c7.19,6.44,18.38,14.3,30.84,15.15a100.58,100.58,0,0,0,14.69-.32c7.56-.57,13.53-1,17.26,3.06,3.52,3.85,4.07,10.73,1.91,23.73-.9,5.37-.45,9,1.16,9.52,2.84.88,10.8-3.3,21.61-14.56,10.42-10.86,20.07-24.68,25.82-37,3-6.37,2.19-8.4,1.72-9-2.29-2.81-14.29,0-23.05,2.14-12.72,3-25.87,6.17-32.8,1.48a10.39,10.39,0,0,1-4.45-7.41c-1.33-9-6.81-11-13.16-13.21-8.37-3-17.86-6.29-11.34-27.61,8.14-26.62,41.85-62.31,56-76.43a13.91,13.91,0,0,0,3.28-14.34,32.87,32.87,0,0,1,2.26-26.66c10.57-19.17,17.62-34.08,21-44.31,3.48-10.66,2.33-14.16,1.33-15.29-2.68-3.07-13.24,1.08-21,4.11-10.16,4-18.93,7.43-23.32,3-11.73-11.73-12.28-40.71-12.3-41.94a2.65,2.65,0,0,1,5.29-.08c0,.28.53,28.07,10.75,38.28,2,2,11.4-1.76,17.65-4.22,10.68-4.19,21.72-8.53,26.86-2.67,3.18,3.62,3.09,10.11-.28,20.42-3.5,10.7-10.49,25.49-21.37,45.22a27.6,27.6,0,0,0-1.89,22.37,19.22,19.22,0,0,1-4.54,19.82c-13.83,13.83-46.85,48.76-54.64,74.24-5,16.47.16,18.3,8,21.07,6.61,2.33,14.83,5.22,16.63,17.43a5.17,5.17,0,0,0,2.18,3.8c5,3.38,17.55.39,28.62-2.24,12.87-3.07,24-5.72,28.37-.34,3.29,4,1,10.24-1,14.56-6,12.78-16,27.13-26.8,38.39-6.72,7-19.16,18.38-27,16-4.66-1.45-6.28-6.64-4.81-15.44,1.77-10.61,1.57-16.92-.6-19.29-2-2.18-6.83-1.82-12.95-1.36a104.74,104.74,0,0,1-15.45.33c-14-1-26.2-9.5-34-16.49a5.07,5.07,0,0,0-4.84-1.1,4.9,4.9,0,0,0-3.4,3.47c-3.81,14-10.85,32.28-22.73,39.52-8.55,5.2-19.2,4.43-30.81-2.23a16.27,16.27,0,0,0-20.33,3.56c-10.82,12.48-19.93,19.82-27.1,21.81,1.77,2.74,8.78,8.7,14.06,13.19,14.83,12.59,33.28,28.27,31.44,41.16-.72,5-4.35,9-10.79,11.9a102.05,102.05,0,0,1-29.6,8.5c-11.2,1.68-15,2.24-24.57,25-8.91,21.15,6.08,42.32,17,57.78,3.93,5.55,7.32,10.34,9.21,14.45,2.46,5.38,2,9.45-1.23,12.09-4.87,3.93-7.45,3.91-10.5,2.51-1.16-.53-1.93-.88-4.57.46-4.1,2.06-10.39,7.27-19.25,15.9-12.66,12.35-27.4,18.57-39.25,23.57-10.13,4.28-18.13,7.65-19.35,12.72-.92,3.79,1.7,9.3,8,16.84l3.46,4.13c25,29.74,25.24,30.4,30.49,70.43l.23,1.75c5.57,42.41,23.19,87.77,23.37,88.23a2.64,2.64,0,0,1-1.5,3.42A2.58,2.58,0,0,1,2054.08,1836.15Z" transform="translate(-381 -659.34)"/></g></g>

</svg>