<svg width="32" height="33" viewBox="0 0 32 33" fill="none" xmlns="http://www.w3.org/2000/svg">
<g id="flat-color-icons:google">
<path id="Vector" d="M29.0753 13.8887H28.0013V13.8334H16.0013V19.1667H23.5366C22.4373 22.2714 19.4833 24.5001 16.0013 24.5001C11.5833 24.5001 8.0013 20.9181 8.0013 16.5001C8.0013 12.0821 11.5833 8.50008 16.0013 8.50008C18.0406 8.50008 19.896 9.26941 21.3086 10.5261L25.08 6.75475C22.6986 4.53541 19.5133 3.16675 16.0013 3.16675C8.63797 3.16675 2.66797 9.13675 2.66797 16.5001C2.66797 23.8634 8.63797 29.8334 16.0013 29.8334C23.3646 29.8334 29.3346 23.8634 29.3346 16.5001C29.3346 15.6061 29.2426 14.7334 29.0753 13.8887Z" fill="#FFC107"/>
<path id="Vector_2" d="M4.20312 10.2941L8.58379 13.5067C9.76912 10.5721 12.6398 8.50008 15.9991 8.50008C18.0385 8.50008 19.8938 9.26941 21.3065 10.5261L25.0778 6.75475C22.6965 4.53541 19.5111 3.16675 15.9991 3.16675C10.8778 3.16675 6.43646 6.05808 4.20312 10.2941Z" fill="#FF3D00"/>
<path id="Vector_3" d="M15.9989 29.8333C19.4429 29.8333 22.5722 28.5153 24.9382 26.372L20.8116 22.88C19.4279 23.9322 17.7372 24.5013 15.9989 24.5C12.5309 24.5 9.58624 22.2886 8.47691 19.2026L4.12891 22.5526C6.33557 26.8706 10.8169 29.8333 15.9989 29.8333Z" fill="#4CAF50"/>
<path id="Vector_4" d="M29.074 13.8886H28V13.8333H16V19.1666H23.5353C23.0095 20.6442 22.0622 21.9354 20.8107 22.8806L20.8127 22.8793L24.9393 26.3713C24.6473 26.6366 29.3333 23.1666 29.3333 16.4999C29.3333 15.6059 29.2413 14.7333 29.074 13.8886Z" fill="#1976D2"/>
</g>
</svg>
