<svg width="54" height="54" viewBox="0 0 54 54" fill="none" xmlns="http://www.w3.org/2000/svg">
<g id="Layer_2" clip-path="url(#clip0_185_256)">
<path id="Vector" fill-rule="evenodd" clip-rule="evenodd" d="M28.2998 14.8023C36.4332 14.8023 42.8212 21.0011 43.5511 27.5239C43.0718 19.41 36.1947 13.6539 28.6539 13.6539C23.8633 13.6539 19.5998 15.8921 16.8593 19.3744C19.6539 16.5757 23.7485 14.8031 28.2998 14.8031V14.8023ZM24.2739 36.7497V27.5231H19.928V36.7497H24.2739ZM46.4137 41.0216C46.4133 41.8334 46.1263 42.6162 45.6082 43.2191C45.0901 43.8221 44.3775 44.2024 43.6079 44.2867C42.8383 44.371 42.0662 44.1533 41.4406 43.6757C40.8149 43.198 40.38 42.4942 40.2197 41.7001C39.7864 42.0715 39.3531 42.4303 38.8858 42.7653C36.1262 44.7529 32.8557 45.813 29.5084 45.8049C20.3605 45.8049 12.9361 38.0142 12.9361 28.4187C12.9317 25.4114 13.6739 22.4549 15.0897 19.84L21.7186 5.27629C18.9466 2.61916 17.4526 -1.00651 14.0307 2.82271L0 25.2128L21.3192 49.4586C23.7606 52.2344 26.9886 53.5295 30.5698 53.1801C34.1632 52.8332 36.4331 50.7384 38.4178 47.5911L40.2084 44.7312C41.058 45.5129 42.1503 45.9427 43.2803 45.9398C44.3433 45.9409 45.3752 45.5636 46.2072 44.8695C47.0393 44.1755 47.6222 43.2057 47.8606 42.119C48.0991 41.0322 47.979 39.8927 47.52 38.8868C47.0609 37.881 46.2901 37.0683 45.3337 36.5817L53.2383 23.9924L32.0419 1.33936C30.7864 0.333504 29.6919 -0.109212 28.8245 0.0230936C28.5669 0.0587863 28.3196 0.151968 28.0993 0.296364C27.879 0.440759 27.6907 0.633014 27.5472 0.860178C24.3645 5.41962 21.2416 10.901 18.2505 15.6512C21.3106 12.6701 25.3333 11.0156 29.5092 11.0205C38.6684 11.0205 46.0944 18.8113 46.0944 28.4204C46.0936 31.129 45.4922 33.8002 44.3377 36.223C44.0871 36.7378 43.8131 37.2517 43.5164 37.7428C44.3056 37.8019 45.0439 38.1735 45.5819 38.7823C46.1198 39.391 46.4172 40.1915 46.4137 41.0216ZM37.1057 36.7497V21.7669H32.7598V36.7497H37.1057ZM30.6838 36.7497V24.3995H26.3499V36.7497H30.6838Z" fill="black"/>
</g>
<defs>
<clipPath id="clip0_185_256">
<rect width="53.235" height="53.235" fill="white"/>
</clipPath>
</defs>
</svg>
