<svg width="111" height="110" viewBox="0 0 111 110" fill="none" xmlns="http://www.w3.org/2000/svg">
<g id="Layer_2" clip-path="url(#clip0_185_249)">
<path id="Vector" fill-rule="evenodd" clip-rule="evenodd" d="M58.9761 30.586C75.7822 30.586 88.9817 43.3947 90.4901 56.8729C89.4996 40.1071 75.2894 28.2132 59.7078 28.2132C49.8089 28.2132 40.9991 32.8379 35.3364 40.0335C41.1111 34.2504 49.5717 30.5878 58.9761 30.5878V30.586ZM50.6575 75.9361V56.8711H41.6773V75.9361H50.6575ZM96.4051 84.7632C96.4041 86.4406 95.8112 88.0582 94.7406 89.3041C93.67 90.5499 92.1976 91.3357 90.6074 91.5099C89.0172 91.6841 87.4218 91.2343 86.129 90.2474C84.8362 89.2604 83.9375 87.8062 83.6064 86.1652C82.711 86.9328 81.8157 87.6741 80.8502 88.3663C75.1479 92.4732 68.39 94.6637 61.4734 94.6471C42.571 94.6471 27.2299 78.549 27.2299 58.7217C27.2208 52.5079 28.7545 46.3987 31.6799 40.9956L45.3773 10.9024C39.6495 5.41198 36.5625 -2.07978 29.4917 5.83257L0.5 52.0974L44.5521 102.197C49.5968 107.932 56.2667 110.608 63.6666 109.886C71.0916 109.17 75.7821 104.841 79.883 98.3378L83.583 92.4285C85.3385 94.0438 87.5955 94.9317 89.9305 94.9257C92.127 94.9281 94.2592 94.1484 95.9784 92.7143C97.6976 91.2801 98.9021 89.2764 99.3949 87.0308C99.8876 84.7852 99.6394 82.4306 98.6909 80.3522C97.7424 78.2738 96.1497 76.5946 94.1734 75.5891L110.507 49.5757L66.7085 2.76752C64.1143 0.689105 61.8526 -0.225681 60.0602 0.0477023C59.5281 0.121455 59.0171 0.313998 58.5618 0.612363C58.1066 0.910728 57.7176 1.30799 57.421 1.77738C50.8446 11.1986 44.3917 22.5247 38.2112 32.3402C44.5342 26.1804 52.8464 22.7616 61.4751 22.7718C80.4008 22.7718 95.7452 38.8699 95.7452 58.7252C95.7435 64.322 94.5008 69.8417 92.1154 74.8478C91.5976 75.9116 91.0313 76.9736 90.4183 77.9883C92.0491 78.1105 93.5747 78.8783 94.6862 80.1361C95.7978 81.394 96.4122 83.048 96.4051 84.7632ZM77.1719 75.9361V44.9772H68.1918V75.9361H77.1719ZM63.9022 75.9361V50.4168H54.9471V75.9361H63.9022Z" fill="white"/>
</g>
<defs>
<clipPath id="clip0_185_249">
<rect width="110" height="110" fill="white" transform="translate(0.5)"/>
</clipPath>
</defs>
</svg>
