<svg width="240" height="258" viewBox="0 0 240 258" fill="none" xmlns="http://www.w3.org/2000/svg">
<rect x="240" y="264" width="94" height="72" transform="rotate(180 240 264)" fill="#4EFF9F" fill-opacity="0.66"/>
<rect x="157" y="280" width="94" height="72" transform="rotate(180 157 280)" fill="#C7FFD3" fill-opacity="0.66"/>
<rect x="240" y="208" width="94" height="72" transform="rotate(180 240 208)" fill="#C7FFD3" fill-opacity="0.66"/>
<rect x="193" y="171" width="94" height="72" transform="rotate(180 193 171)" fill="#C7FFD3" fill-opacity="0.66"/>
<rect x="150" y="191" width="94" height="72" transform="rotate(180 150 191)" fill="#C7FFD3" fill-opacity="0.66"/>
<rect x="103" y="222" width="94" height="72" transform="rotate(180 103 222)" fill="#C7FFD3" fill-opacity="0.66"/>
<rect x="94" y="191" width="65" height="50" transform="rotate(180 94 191)" fill="#4EFF9F" fill-opacity="0.66"/>
<rect x="240" y="123" width="94" height="72" transform="rotate(180 240 123)" fill="#C7FFD3" fill-opacity="0.66"/>
<rect x="132" y="102" width="94" height="72" transform="rotate(180 132 102)" fill="#C7FFD3" fill-opacity="0.66"/>
<rect x="94" y="166" width="94" height="72" transform="rotate(180 94 166)" fill="#C7FFD3" fill-opacity="0.66"/>
<rect x="197" y="108" width="94" height="72" transform="rotate(180 197 108)" fill="#C7FFD3" fill-opacity="0.66"/>
<rect x="240" y="72" width="94" height="72" transform="rotate(180 240 72)" fill="#C7FFD3" fill-opacity="0.66"/>
<rect x="197" y="87" width="94" height="72" transform="rotate(180 197 87)" fill="#4EFF9F" fill-opacity="0.66"/>
<rect x="167" y="130" width="94" height="72" transform="rotate(180 167 130)" fill="#C7FFD3" fill-opacity="0.66"/>
</svg>
